<?xml version="1.0" encoding="UTF-8" standalone="no"?>
<!DOCTYPE svg PUBLIC "-//W3C//DTD SVG 1.1//EN"
 "http://www.w3.org/Graphics/SVG/1.1/DTD/svg11.dtd">
<!-- Generated by graphviz version 2.43.0 (0)
 -->
<!-- Title: bioprocess_CHO_K1 Pages: 1 -->
<svg width="701pt" height="397pt"
 viewBox="0.00 0.00 701.41 397.21" xmlns="http://www.w3.org/2000/svg" xmlns:xlink="http://www.w3.org/1999/xlink">
<g id="graph0" class="graph" transform="scale(1 1) rotate(0) translate(4 393.21)">
<title>bioprocess_CHO_K1</title>
<polygon fill="#f8fafb" stroke="transparent" points="-4,4 -4,-393.21 697.41,-393.21 697.41,4 -4,4"/>
<text text-anchor="middle" x="346.7" y="-376.41" font-family="Helvetica,sans-Serif" font-size="11.00" fill="#0f2a44">bioprocess_CHO_K1</text>
<!-- outer_f__target_titer -->
<g id="node1" class="node">
<title>outer_f__target_titer</title>
<ellipse fill="#0e7c7b" stroke="#0e7c7b" cx="50.2" cy="-56" rx="50.41" ry="21.43"/>
<text text-anchor="middle" x="50.2" y="-59" font-family="Helvetica,sans-Serif" font-size="10.00" fill="#ffffff">target_titer</text>
<text text-anchor="middle" x="50.2" y="-48" font-family="Helvetica,sans-Serif" font-size="10.00" fill="#ffffff">[g/L]</text>
</g>
<!-- cell -->
<g id="node2" class="node">
<title>cell</title>
<polygon fill="white" stroke="transparent" points="150.41,-28 150.41,-156 304.41,-156 304.41,-28 150.41,-28"/>
<polygon fill="#0e7c7b" stroke="transparent" points="150.41,-131 150.41,-156 304.41,-156 304.41,-131 150.41,-131"/>
<polygon fill="none" stroke="#0e7c7b" points="150.41,-131 150.41,-156 304.41,-156 304.41,-131 150.41,-131"/>
<text text-anchor="start" x="188.91" y="-142" font-family="Helvetica,sans-Serif" font-weight="bold" font-size="10.00" fill="white">cell &#160;</text>
<text text-anchor="start" x="216.91" y="-142" font-family="Helvetica,sans-Serif" font-weight="bold" font-size="9.00" fill="#6b7280">(CellLine)</text>
<polygon fill="none" stroke="#0e7c7b" points="150.41,-28 150.41,-131 212.41,-131 212.41,-28 150.41,-28"/>
<polygon fill="white" stroke="transparent" points="151.41,-29 151.41,-130 211.41,-130 211.41,-29 151.41,-29"/>
<polygon fill="#e8f4f3" stroke="transparent" points="151.41,-83 151.41,-130 211.41,-130 211.41,-83 151.41,-83"/>
<polygon fill="none" stroke="#0e7c7b" points="151.41,-83 151.41,-130 211.41,-130 211.41,-83 151.41,-83"/>
<text text-anchor="start" x="152.41" y="-105.6" font-family="Helvetica,sans-Serif" font-weight="bold" font-size="8.00" fill="#0e7c7b">F</text>
<polygon fill="white" stroke="transparent" points="151.41,-29 151.41,-83 211.41,-83 211.41,-29 151.41,-29"/>
<polygon fill="none" stroke="#0e7c7b" points="151.41,-29 151.41,-83 211.41,-83 211.41,-29 151.41,-29"/>
<text text-anchor="start" x="155.41" y="-53.8" font-family="Helvetica,sans-Serif" font-size="9.00" fill="#0e7c7b">target_titer</text>
<polygon fill="none" stroke="#0e7c7b" points="212.41,-28 212.41,-131 304.41,-131 304.41,-28 212.41,-28"/>
<polygon fill="white" stroke="transparent" points="213.41,-29 213.41,-130 303.41,-130 303.41,-29 213.41,-29"/>
<polygon fill="#e8eef5" stroke="transparent" points="213.41,-119 213.41,-130 303.41,-130 303.41,-119 213.41,-119"/>
<polygon fill="none" stroke="#0e7c7b" points="213.41,-119 213.41,-130 303.41,-130 303.41,-119 213.41,-119"/>
<text text-anchor="start" x="295.41" y="-123.6" font-family="Helvetica,sans-Serif" font-weight="bold" font-size="8.00" fill="#0f2a44">R</text>
<polygon fill="white" stroke="transparent" points="213.41,-101 213.41,-119 303.41,-119 303.41,-101 213.41,-101"/>
<polygon fill="none" stroke="#0e7c7b" points="213.41,-101 213.41,-119 303.41,-119 303.41,-101 213.41,-101"/>
<text text-anchor="start" x="261.41" y="-107.8" font-family="Helvetica,sans-Serif" font-size="9.00" fill="#0f2a44">avg_vcd</text>
<polygon fill="white" stroke="transparent" points="213.41,-83 213.41,-101 303.41,-101 303.41,-83 213.41,-83"/>
<polygon fill="none" stroke="#0e7c7b" points="213.41,-83 213.41,-101 303.41,-101 303.41,-83 213.41,-83"/>
<text text-anchor="start" x="256.41" y="-89.8" font-family="Helvetica,sans-Serif" font-size="9.00" fill="#0f2a44">peak_vcd</text>
<polygon fill="white" stroke="transparent" points="213.41,-65 213.41,-83 303.41,-83 303.41,-65 213.41,-65"/>
<polygon fill="none" stroke="#0e7c7b" points="213.41,-65 213.41,-83 303.41,-83 303.41,-65 213.41,-65"/>
<text text-anchor="start" x="223.41" y="-71.8" font-family="Helvetica,sans-Serif" font-size="9.00" fill="#0f2a44">oxygen_demand</text>
<polygon fill="white" stroke="transparent" points="213.41,-47 213.41,-65 303.41,-65 303.41,-47 213.41,-47"/>
<polygon fill="none" stroke="#0e7c7b" points="213.41,-47 213.41,-65 303.41,-65 303.41,-47 213.41,-47"/>
<text text-anchor="start" x="247.41" y="-53.8" font-family="Helvetica,sans-Serif" font-size="9.00" fill="#0f2a44">batch_days</text>
<polygon fill="white" stroke="transparent" points="213.41,-29 213.41,-47 303.41,-47 303.41,-29 213.41,-29"/>
<polygon fill="none" stroke="#0e7c7b" points="213.41,-29 213.41,-47 303.41,-47 303.41,-29 213.41,-29"/>
<text text-anchor="start" x="217.41" y="-35.8" font-family="Helvetica,sans-Serif" font-size="9.00" fill="#0f2a44">license_per_batch</text>
</g>
<!-- outer_f__target_titer&#45;&gt;cell -->
<g id="edge1" class="edge">
<title>outer_f__target_titer&#45;&gt;cell:f_target_titer</title>
<path fill="none" stroke="#555555" d="M100.66,-56C114.19,-56 129.01,-56 143.11,-56"/>
<polygon fill="#555555" stroke="#555555" points="143.41,-58.45 150.41,-56 143.41,-53.55 143.41,-58.45"/>
</g>
<!-- feed -->
<g id="node3" class="node">
<title>feed</title>
<polygon fill="white" stroke="transparent" points="354.41,0 354.41,-92 502.41,-92 502.41,0 354.41,0"/>
<polygon fill="#0e7c7b" stroke="transparent" points="354.41,-67 354.41,-92 502.41,-92 502.41,-67 354.41,-67"/>
<polygon fill="none" stroke="#0e7c7b" points="354.41,-67 354.41,-92 502.41,-92 502.41,-67 354.41,-67"/>
<text text-anchor="start" x="372.41" y="-78" font-family="Helvetica,sans-Serif" font-weight="bold" font-size="10.00" fill="white">feed &#160;</text>
<text text-anchor="start" x="406.41" y="-78" font-family="Helvetica,sans-Serif" font-weight="bold" font-size="9.00" fill="#6b7280">(FeedStrategy)</text>
<polygon fill="none" stroke="#0e7c7b" points="354.41,0 354.41,-67 416.41,-67 416.41,0 354.41,0"/>
<polygon fill="white" stroke="transparent" points="355.41,-1 355.41,-66 415.41,-66 415.41,-1 355.41,-1"/>
<polygon fill="#e8f4f3" stroke="transparent" points="355.41,-49 355.41,-66 415.41,-66 415.41,-49 355.41,-49"/>
<polygon fill="none" stroke="#0e7c7b" points="355.41,-49 355.41,-66 415.41,-66 415.41,-49 355.41,-49"/>
<text text-anchor="start" x="356.41" y="-56.6" font-family="Helvetica,sans-Serif" font-weight="bold" font-size="8.00" fill="#0e7c7b">F</text>
<polygon fill="white" stroke="transparent" points="355.41,-25 355.41,-49 415.41,-49 415.41,-25 355.41,-25"/>
<polygon fill="none" stroke="#0e7c7b" points="355.41,-25 355.41,-49 415.41,-49 415.41,-25 355.41,-25"/>
<text text-anchor="start" x="359.41" y="-34.8" font-family="Helvetica,sans-Serif" font-size="9.00" fill="#0e7c7b">peak_vcd</text>
<polygon fill="white" stroke="transparent" points="355.41,-1 355.41,-25 415.41,-25 415.41,-1 355.41,-1"/>
<polygon fill="none" stroke="#0e7c7b" points="355.41,-1 355.41,-25 415.41,-25 415.41,-1 355.41,-1"/>
<text text-anchor="start" x="359.41" y="-10.8" font-family="Helvetica,sans-Serif" font-size="9.00" fill="#0e7c7b">batch_days</text>
<polygon fill="none" stroke="#0e7c7b" points="416.41,0 416.41,-67 502.41,-67 502.41,0 416.41,0"/>
<polygon fill="white" stroke="transparent" points="417.41,-1 417.41,-66 501.41,-66 501.41,-1 417.41,-1"/>
<polygon fill="#e8eef5" stroke="transparent" points="417.41,-55 417.41,-66 501.41,-66 501.41,-55 417.41,-55"/>
<polygon fill="none" stroke="#0e7c7b" points="417.41,-55 417.41,-66 501.41,-66 501.41,-55 417.41,-55"/>
<text text-anchor="start" x="493.41" y="-59.6" font-family="Helvetica,sans-Serif" font-weight="bold" font-size="8.00" fill="#0f2a44">R</text>
<polygon fill="white" stroke="transparent" points="417.41,-37 417.41,-55 501.41,-55 501.41,-37 417.41,-37"/>
<polygon fill="none" stroke="#0e7c7b" points="417.41,-37 417.41,-55 501.41,-55 501.41,-37 417.41,-37"/>
<text text-anchor="start" x="427.41" y="-43.8" font-family="Helvetica,sans-Serif" font-size="9.00" fill="#0f2a44">feed_cost_per_l</text>
<polygon fill="white" stroke="transparent" points="417.41,-19 417.41,-37 501.41,-37 501.41,-19 417.41,-19"/>
<polygon fill="none" stroke="#0e7c7b" points="417.41,-19 417.41,-37 501.41,-37 501.41,-19 417.41,-19"/>
<text text-anchor="start" x="421.41" y="-25.8" font-family="Helvetica,sans-Serif" font-size="9.00" fill="#0f2a44">metabolic_factor</text>
<polygon fill="white" stroke="transparent" points="417.41,-1 417.41,-19 501.41,-19 501.41,-1 417.41,-1"/>
<polygon fill="none" stroke="#0e7c7b" points="417.41,-1 417.41,-19 501.41,-19 501.41,-1 417.41,-1"/>
<text text-anchor="start" x="428.41" y="-7.8" font-family="Helvetica,sans-Serif" font-size="9.00" fill="#0f2a44">cogs_multiplier</text>
</g>
<!-- cell&#45;&gt;feed -->
<g id="edge2" class="edge">
<title>cell:r_peak_vcd&#45;&gt;feed:f_peak_vcd</title>
<path fill="none" stroke="#555555" d="M304.41,-92C334.73,-92 323.68,-45.65 347.22,-38.05"/>
<polygon fill="#555555" stroke="#555555" points="347.84,-40.44 354.41,-37 347.13,-35.59 347.84,-40.44"/>
</g>
<!-- cell&#45;&gt;feed -->
<g id="edge3" class="edge">
<title>cell:r_batch_days&#45;&gt;feed:f_batch_days</title>
<path fill="none" stroke="#555555" d="M304.41,-56C331.09,-56 326.34,-20.38 347.37,-13.98"/>
<polygon fill="#555555" stroke="#555555" points="347.81,-16.39 354.41,-13 347.14,-11.54 347.81,-16.39"/>
</g>
<!-- bior -->
<g id="node4" class="node">
<title>bior</title>
<polygon fill="white" stroke="transparent" points="552.41,-15 552.41,-125 693.41,-125 693.41,-15 552.41,-15"/>
<polygon fill="#0e7c7b" stroke="transparent" points="552.91,-100 552.91,-125 693.91,-125 693.91,-100 552.91,-100"/>
<polygon fill="none" stroke="#0e7c7b" points="552.91,-100 552.91,-125 693.91,-125 693.91,-100 552.91,-100"/>
<text text-anchor="start" x="577.41" y="-111" font-family="Helvetica,sans-Serif" font-weight="bold" font-size="10.00" fill="white">bior &#160;</text>
<text text-anchor="start" x="608.41" y="-111" font-family="Helvetica,sans-Serif" font-weight="bold" font-size="9.00" fill="#6b7280">(CatalogDP)</text>
<polygon fill="none" stroke="#0e7c7b" points="552.91,-15 552.91,-100 605.91,-100 605.91,-15 552.91,-15"/>
<polygon fill="white" stroke="transparent" points="553.91,-16 553.91,-99 604.91,-99 604.91,-16 553.91,-16"/>
<polygon fill="#e8f4f3" stroke="transparent" points="553.91,-61 553.91,-99 604.91,-99 604.91,-61 553.91,-61"/>
<polygon fill="none" stroke="#0e7c7b" points="553.91,-61 553.91,-99 604.91,-99 604.91,-61 553.91,-61"/>
<text text-anchor="start" x="554.91" y="-79.1" font-family="Helvetica,sans-Serif" font-weight="bold" font-size="8.00" fill="#0e7c7b">F</text>
<polygon fill="white" stroke="transparent" points="553.91,-16 553.91,-61 604.91,-61 604.91,-16 553.91,-16"/>
<polygon fill="none" stroke="#0e7c7b" points="553.91,-16 553.91,-61 604.91,-61 604.91,-16 553.91,-16"/>
<text text-anchor="start" x="557.91" y="-36.3" font-family="Helvetica,sans-Serif" font-size="9.00" fill="#0e7c7b">peak_vcd</text>
<polygon fill="none" stroke="#0e7c7b" points="605.91,-15 605.91,-100 693.91,-100 693.91,-15 605.91,-15"/>
<polygon fill="white" stroke="transparent" points="606.91,-16 606.91,-99 692.91,-99 692.91,-16 606.91,-16"/>
<polygon fill="#e8eef5" stroke="transparent" points="606.91,-88 606.91,-99 692.91,-99 692.91,-88 606.91,-88"/>
<polygon fill="none" stroke="#0e7c7b" points="606.91,-88 606.91,-99 692.91,-99 692.91,-88 606.91,-88"/>
<text text-anchor="start" x="684.91" y="-92.6" font-family="Helvetica,sans-Serif" font-weight="bold" font-size="8.00" fill="#0f2a44">R</text>
<polygon fill="white" stroke="transparent" points="606.91,-70 606.91,-88 692.91,-88 692.91,-70 606.91,-70"/>
<polygon fill="none" stroke="#0e7c7b" points="606.91,-70 606.91,-88 692.91,-88 692.91,-70 606.91,-70"/>
<text text-anchor="start" x="614.91" y="-76.8" font-family="Helvetica,sans-Serif" font-size="9.00" fill="#0f2a44">working_volume</text>
<polygon fill="white" stroke="transparent" points="606.91,-52 606.91,-70 692.91,-70 692.91,-52 606.91,-52"/>
<polygon fill="none" stroke="#0e7c7b" points="606.91,-52 606.91,-70 692.91,-70 692.91,-52 606.91,-52"/>
<text text-anchor="start" x="610.91" y="-58.8" font-family="Helvetica,sans-Serif" font-size="9.00" fill="#0f2a44">capex_per_batch</text>
<polygon fill="white" stroke="transparent" points="606.91,-34 606.91,-52 692.91,-52 692.91,-34 606.91,-34"/>
<polygon fill="none" stroke="#0e7c7b" points="606.91,-34 606.91,-52 692.91,-52 692.91,-34 606.91,-34"/>
<text text-anchor="start" x="629.91" y="-40.8" font-family="Helvetica,sans-Serif" font-size="9.00" fill="#0f2a44">footprint_m2</text>
<polygon fill="white" stroke="transparent" points="606.91,-16 606.91,-34 692.91,-34 692.91,-16 606.91,-16"/>
<polygon fill="none" stroke="#0e7c7b" points="606.91,-16 606.91,-34 692.91,-34 692.91,-16 606.91,-16"/>
<text text-anchor="start" x="621.91" y="-22.8" font-family="Helvetica,sans-Serif" font-size="9.00" fill="#0f2a44">co2_per_batch</text>
</g>
<!-- cell&#45;&gt;bior -->
<g id="edge4" class="edge">
<title>cell:r_peak_vcd&#45;&gt;bior:f_peak_vcd</title>
<path fill="none" stroke="#555555" d="M304.41,-92C327.49,-92 331.55,-102.86 354.41,-106 419.58,-114.95 443.65,-135.56 502.41,-106 533.68,-90.27 517.92,-45.01 545.8,-38.73"/>
<polygon fill="#555555" stroke="#555555" points="546.2,-41.15 552.91,-38 545.7,-36.28 546.2,-41.15"/>
</g>
<!-- media -->
<g id="node5" class="node">
<title>media</title>
<polygon fill="white" stroke="transparent" points="552.41,-174 552.41,-230 693.41,-230 693.41,-174 552.41,-174"/>
<polygon fill="#0e7c7b" stroke="transparent" points="552.91,-205 552.91,-230 693.91,-230 693.91,-205 552.91,-205"/>
<polygon fill="none" stroke="#0e7c7b" points="552.91,-205 552.91,-230 693.91,-230 693.91,-205 552.91,-205"/>
<text text-anchor="start" x="571.41" y="-216" font-family="Helvetica,sans-Serif" font-weight="bold" font-size="10.00" fill="white">media &#160;</text>
<text text-anchor="start" x="614.41" y="-216" font-family="Helvetica,sans-Serif" font-weight="bold" font-size="9.00" fill="#6b7280">(CatalogDP)</text>
<polygon fill="none" stroke="#0e7c7b" points="552.91,-174 552.91,-205 605.91,-205 605.91,-174 552.91,-174"/>
<polygon fill="white" stroke="transparent" points="553.91,-175 553.91,-204 604.91,-204 604.91,-175 553.91,-175"/>
<polygon fill="#e8f4f3" stroke="transparent" points="553.91,-193 553.91,-204 604.91,-204 604.91,-193 553.91,-193"/>
<polygon fill="none" stroke="#0e7c7b" points="553.91,-193 553.91,-204 604.91,-204 604.91,-193 553.91,-193"/>
<text text-anchor="start" x="554.91" y="-197.6" font-family="Helvetica,sans-Serif" font-weight="bold" font-size="8.00" fill="#0e7c7b">F</text>
<polygon fill="white" stroke="transparent" points="553.91,-175 553.91,-193 604.91,-193 604.91,-175 553.91,-175"/>
<polygon fill="none" stroke="#0e7c7b" points="553.91,-175 553.91,-193 604.91,-193 604.91,-175 553.91,-175"/>
<text text-anchor="start" x="557.91" y="-181.8" font-family="Helvetica,sans-Serif" font-size="9.00" fill="#0e7c7b">peak_vcd</text>
<polygon fill="none" stroke="#0e7c7b" points="605.91,-174 605.91,-205 693.91,-205 693.91,-174 605.91,-174"/>
<polygon fill="white" stroke="transparent" points="606.91,-175 606.91,-204 692.91,-204 692.91,-175 606.91,-175"/>
<polygon fill="#e8eef5" stroke="transparent" points="606.91,-193 606.91,-204 692.91,-204 692.91,-193 606.91,-193"/>
<polygon fill="none" stroke="#0e7c7b" points="606.91,-193 606.91,-204 692.91,-204 692.91,-193 606.91,-193"/>
<text text-anchor="start" x="684.91" y="-197.6" font-family="Helvetica,sans-Serif" font-weight="bold" font-size="8.00" fill="#0f2a44">R</text>
<polygon fill="white" stroke="transparent" points="606.91,-175 606.91,-193 692.91,-193 692.91,-175 606.91,-175"/>
<polygon fill="none" stroke="#0e7c7b" points="606.91,-175 606.91,-193 692.91,-193 692.91,-175 606.91,-175"/>
<text text-anchor="start" x="610.91" y="-181.8" font-family="Helvetica,sans-Serif" font-size="9.00" fill="#0f2a44">media_cost_per_l</text>
</g>
<!-- cell&#45;&gt;media -->
<g id="edge6" class="edge">
<title>cell:r_peak_vcd&#45;&gt;media:f_peak_vcd</title>
<path fill="none" stroke="#555555" d="M304.41,-92C334.01,-92 328.15,-122.34 354.41,-136 432.82,-176.77 460.67,-183.65 545.86,-183.99"/>
<polygon fill="#555555" stroke="#555555" points="545.9,-186.44 552.91,-184 545.91,-181.54 545.9,-186.44"/>
</g>
<!-- feed&#45;&gt;bior -->
<g id="edge5" class="edge">
<title>feed:r_metabolic_factor&#45;&gt;bior:f_peak_vcd</title>
<path fill="none" stroke="#555555" d="M502.41,-28C522.61,-28 528.67,-35.79 545.55,-37.62"/>
<polygon fill="#555555" stroke="#555555" points="545.79,-40.09 552.91,-38 546.04,-35.19 545.79,-40.09"/>
</g>
<!-- feed&#45;&gt;media -->
<g id="edge7" class="edge">
<title>feed:r_metabolic_factor&#45;&gt;media:f_peak_vcd</title>
<path fill="none" stroke="#555555" d="M502.41,-28C572.72,-28 486.52,-173.22 545.83,-183.44"/>
<polygon fill="#555555" stroke="#555555" points="545.74,-185.89 552.91,-184 546.13,-181 545.74,-185.89"/>
</g>
<!-- outer_r__cogs_per_g -->
<g id="node6" class="node">
<title>outer_r__cogs_per_g</title>
<ellipse fill="#0f2a44" stroke="#0f2a44" cx="227.41" cy="-348" rx="50.41" ry="21.43"/>
<text text-anchor="middle" x="227.41" y="-351" font-family="Helvetica,sans-Serif" font-size="10.00" fill="#ffffff">cogs_per_g</text>
<text text-anchor="middle" x="227.41" y="-340" font-family="Helvetica,sans-Serif" font-size="10.00" fill="#ffffff">[USD/g]</text>
</g>
<!-- outer_r__footprint_m2 -->
<g id="node7" class="node">
<title>outer_r__footprint_m2</title>
<ellipse fill="#0f2a44" stroke="#0f2a44" cx="227.41" cy="-277" rx="56.64" ry="21.43"/>
<text text-anchor="middle" x="227.41" y="-280" font-family="Helvetica,sans-Serif" font-size="10.00" fill="#ffffff">footprint_m2</text>
<text text-anchor="middle" x="227.41" y="-269" font-family="Helvetica,sans-Serif" font-size="10.00" fill="#ffffff">[m^2]</text>
</g>
<!-- outer_r__co2_per_g -->
<g id="node8" class="node">
<title>outer_r__co2_per_g</title>
<ellipse fill="#0f2a44" stroke="#0f2a44" cx="227.41" cy="-206" rx="46.84" ry="21.43"/>
<text text-anchor="middle" x="227.41" y="-209" font-family="Helvetica,sans-Serif" font-size="10.00" fill="#ffffff">co2_per_g</text>
<text text-anchor="middle" x="227.41" y="-198" font-family="Helvetica,sans-Serif" font-size="10.00" fill="#ffffff">[kg/g]</text>
</g>
<!-- lambda_marker -->
<g id="node9" class="node">
<title>lambda_marker</title>
<ellipse fill="#f8fafb" stroke="#d1d5db" stroke-dasharray="5,2" cx="50.2" cy="-277" rx="11" ry="11"/>
<text text-anchor="middle" x="50.2" y="-273.3" font-family="Helvetica,sans-Serif" font-size="14.00" fill="#1f2937">λ</text>
</g>
<!-- lambda_marker&#45;&gt;outer_r__cogs_per_g -->
<g id="edge8" class="edge">
<title>lambda_marker&#45;&gt;outer_r__cogs_per_g</title>
<path fill="none" stroke="#777777" stroke-dasharray="5,2" d="M60.62,-280.82C83.45,-290.07 142.86,-314.14 183.98,-330.81"/>
<polygon fill="#777777" stroke="#777777" points="183.26,-333.16 190.67,-333.52 185.1,-328.62 183.26,-333.16"/>
</g>
<!-- lambda_marker&#45;&gt;outer_r__footprint_m2 -->
<g id="edge9" class="edge">
<title>lambda_marker&#45;&gt;outer_r__footprint_m2</title>
<path fill="none" stroke="#777777" stroke-dasharray="5,2" d="M61.38,-277C80.96,-277 125.29,-277 163.08,-277"/>
<polygon fill="#777777" stroke="#777777" points="163.54,-279.45 170.54,-277 163.54,-274.55 163.54,-279.45"/>
</g>
<!-- lambda_marker&#45;&gt;outer_r__co2_per_g -->
<g id="edge10" class="edge">
<title>lambda_marker&#45;&gt;outer_r__co2_per_g</title>
<path fill="none" stroke="#777777" stroke-dasharray="5,2" d="M60.62,-273.18C83.72,-263.82 144.26,-239.29 185.43,-222.61"/>
<polygon fill="#777777" stroke="#777777" points="186.55,-224.8 192.11,-219.9 184.71,-220.26 186.55,-224.8"/>
</g>
</g>
</svg>
