<?xml version="1.0" encoding="UTF-8" standalone="no"?>
<!DOCTYPE svg PUBLIC "-//W3C//DTD SVG 1.1//EN"
 "http://www.w3.org/Graphics/SVG/1.1/DTD/svg11.dtd">
<!-- Generated by graphviz version 2.43.0 (0)
 -->
<!-- Title: drone Pages: 1 -->
<svg width="460pt" height="165pt"
 viewBox="0.00 0.00 459.52 165.43" xmlns="http://www.w3.org/2000/svg" xmlns:xlink="http://www.w3.org/1999/xlink">
<g id="graph0" class="graph" transform="scale(1 1) rotate(0) translate(4 161.43)">
<title>drone</title>
<polygon fill="#f8fafb" stroke="transparent" points="-4,4 -4,-161.43 455.52,-161.43 455.52,4 -4,4"/>
<text text-anchor="middle" x="225.76" y="-144.63" font-family="Helvetica,sans-Serif" font-size="11.00" fill="#0f2a44">drone</text>
<!-- outer_f__endurance -->
<g id="node1" class="node">
<title>outer_f__endurance</title>
<ellipse fill="#0e7c7b" stroke="#0e7c7b" cx="54.45" cy="-116.21" rx="48.17" ry="21.43"/>
<text text-anchor="middle" x="54.45" y="-119.21" font-family="Helvetica,sans-Serif" font-size="10.00" fill="#ffffff">endurance</text>
<text text-anchor="middle" x="54.45" y="-108.21" font-family="Helvetica,sans-Serif" font-size="10.00" fill="#ffffff">[s]</text>
</g>
<!-- battery -->
<g id="node4" class="node">
<title>battery</title>
<polygon fill="white" stroke="transparent" points="164.71,-71.21 164.71,-127.21 274.71,-127.21 274.71,-71.21 164.71,-71.21"/>
<polygon fill="#0e7c7b" stroke="transparent" points="164.71,-102.21 164.71,-127.21 274.71,-127.21 274.71,-102.21 164.71,-102.21"/>
<polygon fill="none" stroke="#b45309" points="164.71,-102.21 164.71,-127.21 274.71,-127.21 274.71,-102.21 164.71,-102.21"/>
<text text-anchor="start" x="171.71" y="-113.21" font-family="Helvetica,sans-Serif" font-weight="bold" font-size="10.00" fill="white">battery &#160;</text>
<text text-anchor="start" x="221.71" y="-113.21" font-family="Helvetica,sans-Serif" font-weight="bold" font-size="9.00" fill="#6b7280">(Battery)</text>
<polygon fill="none" stroke="#b45309" points="164.71,-71.21 164.71,-102.21 226.71,-102.21 226.71,-71.21 164.71,-71.21"/>
<polygon fill="white" stroke="transparent" points="165.71,-72.21 165.71,-101.21 225.71,-101.21 225.71,-72.21 165.71,-72.21"/>
<polygon fill="#e8f4f3" stroke="transparent" points="165.71,-90.21 165.71,-101.21 225.71,-101.21 225.71,-90.21 165.71,-90.21"/>
<polygon fill="none" stroke="#b45309" points="165.71,-90.21 165.71,-101.21 225.71,-101.21 225.71,-90.21 165.71,-90.21"/>
<text text-anchor="start" x="166.71" y="-94.81" font-family="Helvetica,sans-Serif" font-weight="bold" font-size="8.00" fill="#0e7c7b">F</text>
<polygon fill="white" stroke="transparent" points="165.71,-72.21 165.71,-90.21 225.71,-90.21 225.71,-72.21 165.71,-72.21"/>
<polygon fill="none" stroke="#b45309" points="165.71,-72.21 165.71,-90.21 225.71,-90.21 225.71,-72.21 165.71,-72.21"/>
<text text-anchor="start" x="169.71" y="-79.01" font-family="Helvetica,sans-Serif" font-size="9.00" fill="#0e7c7b">capacity</text>
<polygon fill="none" stroke="#b45309" points="226.71,-71.21 226.71,-102.21 274.71,-102.21 274.71,-71.21 226.71,-71.21"/>
<polygon fill="white" stroke="transparent" points="227.71,-72.21 227.71,-101.21 273.71,-101.21 273.71,-72.21 227.71,-72.21"/>
<polygon fill="#e8eef5" stroke="transparent" points="227.71,-90.21 227.71,-101.21 273.71,-101.21 273.71,-90.21 227.71,-90.21"/>
<polygon fill="none" stroke="#b45309" points="227.71,-90.21 227.71,-101.21 273.71,-101.21 273.71,-90.21 227.71,-90.21"/>
<text text-anchor="start" x="265.71" y="-94.81" font-family="Helvetica,sans-Serif" font-weight="bold" font-size="8.00" fill="#0f2a44">R</text>
<polygon fill="white" stroke="transparent" points="227.71,-72.21 227.71,-90.21 273.71,-90.21 273.71,-72.21 227.71,-72.21"/>
<polygon fill="none" stroke="#b45309" points="227.71,-72.21 227.71,-90.21 273.71,-90.21 273.71,-72.21 227.71,-72.21"/>
<text text-anchor="start" x="245.71" y="-79.01" font-family="Helvetica,sans-Serif" font-size="9.00" fill="#0f2a44">mass</text>
</g>
<!-- outer_f__endurance&#45;&gt;battery -->
<g id="edge3" class="edge">
<title>outer_f__endurance&#45;&gt;battery:f_capacity</title>
<path fill="none" stroke="#555555" d="M87.11,-100.35C106.64,-91.89 132.67,-82.91 157.68,-81.43"/>
<polygon fill="#555555" stroke="#555555" points="157.78,-83.87 164.71,-81.21 157.63,-78.98 157.78,-83.87"/>
</g>
<!-- outer_f__extra_payload -->
<g id="node2" class="node">
<title>outer_f__extra_payload</title>
<ellipse fill="#0e7c7b" stroke="#0e7c7b" cx="219.71" cy="-21.21" rx="60.62" ry="21.43"/>
<text text-anchor="middle" x="219.71" y="-24.21" font-family="Helvetica,sans-Serif" font-size="10.00" fill="#ffffff">extra_payload</text>
<text text-anchor="middle" x="219.71" y="-13.21" font-family="Helvetica,sans-Serif" font-size="10.00" fill="#ffffff">[kg]</text>
</g>
<!-- actuator -->
<g id="node5" class="node">
<title>actuator</title>
<polygon fill="white" stroke="transparent" points="330.52,-71.21 330.52,-127.21 451.52,-127.21 451.52,-71.21 330.52,-71.21"/>
<polygon fill="#0e7c7b" stroke="transparent" points="331.02,-102.21 331.02,-127.21 452.02,-127.21 452.02,-102.21 331.02,-102.21"/>
<polygon fill="none" stroke="#b45309" points="331.02,-102.21 331.02,-127.21 452.02,-127.21 452.02,-102.21 331.02,-102.21"/>
<text text-anchor="start" x="338.02" y="-113.21" font-family="Helvetica,sans-Serif" font-weight="bold" font-size="10.00" fill="white">actuator &#160;</text>
<text text-anchor="start" x="393.02" y="-113.21" font-family="Helvetica,sans-Serif" font-weight="bold" font-size="9.00" fill="#6b7280">(Actuator)</text>
<polygon fill="none" stroke="#b45309" points="331.02,-71.21 331.02,-102.21 397.02,-102.21 397.02,-71.21 331.02,-71.21"/>
<polygon fill="white" stroke="transparent" points="332.02,-72.21 332.02,-101.21 396.02,-101.21 396.02,-72.21 332.02,-72.21"/>
<polygon fill="#e8f4f3" stroke="transparent" points="332.02,-90.21 332.02,-101.21 396.02,-101.21 396.02,-90.21 332.02,-90.21"/>
<polygon fill="none" stroke="#b45309" points="332.02,-90.21 332.02,-101.21 396.02,-101.21 396.02,-90.21 332.02,-90.21"/>
<text text-anchor="start" x="333.02" y="-94.81" font-family="Helvetica,sans-Serif" font-weight="bold" font-size="8.00" fill="#0e7c7b">F</text>
<polygon fill="white" stroke="transparent" points="332.02,-72.21 332.02,-90.21 396.02,-90.21 396.02,-72.21 332.02,-72.21"/>
<polygon fill="none" stroke="#b45309" points="332.02,-72.21 332.02,-90.21 396.02,-90.21 396.02,-72.21 332.02,-72.21"/>
<text text-anchor="start" x="336.02" y="-79.01" font-family="Helvetica,sans-Serif" font-size="9.00" fill="#0e7c7b">lift_force</text>
<polygon fill="none" stroke="#b45309" points="397.02,-71.21 397.02,-102.21 452.02,-102.21 452.02,-71.21 397.02,-71.21"/>
<polygon fill="white" stroke="transparent" points="398.02,-72.21 398.02,-101.21 451.02,-101.21 451.02,-72.21 398.02,-72.21"/>
<polygon fill="#e8eef5" stroke="transparent" points="398.02,-90.21 398.02,-101.21 451.02,-101.21 451.02,-90.21 398.02,-90.21"/>
<polygon fill="none" stroke="#b45309" points="398.02,-90.21 398.02,-101.21 451.02,-101.21 451.02,-90.21 398.02,-90.21"/>
<text text-anchor="start" x="443.02" y="-94.81" font-family="Helvetica,sans-Serif" font-weight="bold" font-size="8.00" fill="#0f2a44">R</text>
<polygon fill="white" stroke="transparent" points="398.02,-72.21 398.02,-90.21 451.02,-90.21 451.02,-72.21 398.02,-72.21"/>
<polygon fill="none" stroke="#b45309" points="398.02,-72.21 398.02,-90.21 451.02,-90.21 451.02,-72.21 398.02,-72.21"/>
<text text-anchor="start" x="419.02" y="-79.01" font-family="Helvetica,sans-Serif" font-size="9.00" fill="#0f2a44">power</text>
</g>
<!-- outer_f__extra_payload&#45;&gt;actuator -->
<g id="edge5" class="edge">
<title>outer_f__extra_payload&#45;&gt;actuator:f_lift_force</title>
<path fill="none" stroke="#555555" d="M250.83,-39.54C275.51,-54.29 308.79,-73.5 324.21,-79.41"/>
<polygon fill="#555555" stroke="#555555" points="323.62,-81.79 331.02,-81.21 324.88,-77.05 323.62,-81.79"/>
</g>
<!-- outer_r__total_mass -->
<g id="node6" class="node">
<title>outer_r__total_mass</title>
<ellipse fill="#0f2a44" stroke="#0f2a44" cx="391.02" cy="-21.21" rx="50.41" ry="21.43"/>
<text text-anchor="middle" x="391.02" y="-24.21" font-family="Helvetica,sans-Serif" font-size="10.00" fill="#ffffff">total_mass</text>
<text text-anchor="middle" x="391.02" y="-13.21" font-family="Helvetica,sans-Serif" font-size="10.00" fill="#ffffff">[kg]</text>
</g>
<!-- outer_f__extra_payload&#45;&gt;outer_r__total_mass -->
<g id="edge7" class="edge">
<title>outer_f__extra_payload&#45;&gt;outer_r__total_mass</title>
<path fill="none" stroke="#555555" d="M280.88,-21.21C298.01,-21.21 316.6,-21.21 333.51,-21.21"/>
<polygon fill="#555555" stroke="#555555" points="333.64,-23.66 340.64,-21.21 333.64,-18.76 333.64,-23.66"/>
</g>
<!-- outer_f__extra_power -->
<g id="node3" class="node">
<title>outer_f__extra_power</title>
<ellipse fill="#0e7c7b" stroke="#0e7c7b" cx="54.45" cy="-45.21" rx="54.39" ry="21.43"/>
<text text-anchor="middle" x="54.45" y="-48.21" font-family="Helvetica,sans-Serif" font-size="10.00" fill="#ffffff">extra_power</text>
<text text-anchor="middle" x="54.45" y="-37.21" font-family="Helvetica,sans-Serif" font-size="10.00" fill="#ffffff">[W]</text>
</g>
<!-- outer_f__extra_power&#45;&gt;battery -->
<g id="edge2" class="edge">
<title>outer_f__extra_power&#45;&gt;battery:f_capacity</title>
<path fill="none" stroke="#555555" d="M88,-61.95C107.35,-70.51 132.85,-79.44 157.45,-80.98"/>
<polygon fill="#555555" stroke="#555555" points="157.63,-83.44 164.71,-81.21 157.79,-78.54 157.63,-83.44"/>
</g>
<!-- battery&#45;&gt;actuator -->
<g id="edge4" class="edge">
<title>battery:r_mass&#45;&gt;actuator:f_lift_force</title>
<path fill="none" stroke="#b45309" stroke-width="1.5" d="M274.71,-81.21C297.19,-81.21 304.53,-81.21 323.93,-81.21"/>
<polygon fill="#b45309" stroke="#b45309" stroke-width="1.5" points="324.02,-83.66 331.02,-81.21 324.02,-78.76 324.02,-83.66"/>
</g>
<!-- battery&#45;&gt;outer_r__total_mass -->
<g id="edge6" class="edge">
<title>battery:r_mass&#45;&gt;outer_r__total_mass</title>
<path fill="none" stroke="#555555" d="M274.71,-81.21C283.45,-81.21 323.87,-59.22 354.4,-41.87"/>
<polygon fill="#555555" stroke="#555555" points="355.89,-43.84 360.75,-38.25 353.46,-39.59 355.89,-43.84"/>
</g>
<!-- actuator&#45;&gt;battery -->
<g id="edge1" class="edge">
<title>actuator:r_power&#45;&gt;battery:f_capacity</title>
<path fill="none" stroke="#b45309" stroke-width="1.5" d="M425.02,-71.21C425.02,-59.77 239.92,-58.61 202.32,-67.73"/>
<polygon fill="#b45309" stroke="#b45309" stroke-width="1.5" points="200.76,-65.78 195.71,-71.21 203.04,-70.12 200.76,-65.78"/>
</g>
</g>
</svg>
